<svg xmlns="http://www.w3.org/2000/svg" fill="none" viewBox="-0.5 -0.5 50 50" id="Sanity--Streamline-Svg-Logos" height="50" width="50"><desc>Sanity Streamline Icon: https://streamlinehq.com</desc><path fill="#F37368" d="M36.31109270833334 23.090178125000005V29.179500000000004h-1.9616333333333336V22.13656666666667l1.9616333333333336 0.9536114583333335Z" stroke-width="1"></path><path fill="#F7A199" d="m8.547998958333334 28.048978125000005 1.4712250000000002 1.2805333333333335 6.198346875000001 -3.2285385416666674 -0.6402666666666668 -1.539365625 -7.029305208333334 3.4873708333333338Zm25.801409375000006 -3.9233177083333337 4.985903125000001 -2.588322916666667 -0.8446375000000002 -1.457647916666667 -4.141265625000001 2.057030208333334v1.9889406250000004Z" stroke-width="1"></path><path fill="#F37368" d="M20.318003125000004 22.61339791666667v6.566153125000001h-1.8799156250000002V19.82075520833334l1.8799156250000002 2.792642708333334ZM8.547998958333334 28.04887604166667l1.4712250000000002 1.2805333333333335 2.8335270833333337 -7.083817708333335 -0.9127270833333335 -2.424836458333334 -3.3920250000000003 8.228120833333335Z" stroke-width="1"></path><path fill="#F04939" d="M11.939717708333335 19.82075520833334h1.9344281250000002l3.582767708333334 9.358795833333334h-1.9889406250000004l-3.528255208333334 -9.358795833333334Zm8.664016666666667 0 4.127688541666667 6.389038541666668v2.969757291666667L18.43773020833334 19.82075520833334h2.1660041666666667Zm7.669622916666667 0h1.9480052083333337v9.358795833333334h-1.9480052083333337V19.82075520833334Zm6.075693750000001 1.7164802083333335h-2.9969625000000004v-1.7164802083333335h6.988420833333334l0.9944447916666668 1.7164802083333335h-4.985903125000001Z" stroke-width="1"></path><path fill="#F7A199" d="M45.097303125 25.62398854166667v3.5555625000000006H43.162875v-3.5555625000000006" stroke-width="1"></path><path fill="#F04939" d="M46.43229791666667 19.82075520833334 43.162875 25.624039583333335h1.9344281250000002l3.3920250000000003 -5.8032843750000005h-2.057030208333334Z" stroke-width="1"></path><path fill="#F37368" d="m43.16328333333334 25.624039583333335 -3.378447916666667 -5.8032843750000005h2.125119791666667l2.275029166666667 3.977830208333334 -1.0217010416666668 1.825454166666667Z" stroke-width="1"></path><path fill="#F04939" d="M1.2868573958333334 20.910392708333337c0 1.2941614583333334 0.8037378125000001 2.0706583333333337 2.4112185416666674 2.4793489583333335l1.702846979166667 0.3950114583333334c1.5257375000000002 0.3542291666666667 2.4520927083333337 1.2260718750000001 2.4520927083333337 2.642835416666667 0.013628125000000003 0.6130104166666668 -0.19074270833333334 1.2123927083333337 -0.5585489583333334 1.7028520833333336 0 -1.4167635416666668 -0.7356125000000001 -2.179632291666667 -2.4929515625000005 -2.642835416666667l-1.6755958333333336 -0.38143437500000005c-1.3486433333333336 -0.29971666666666674 -2.3839725 -1.0217010416666668 -2.3839725 -2.561066666666667 0 -0.5857541666666667 0.19071718750000002 -1.1715593750000002 0.5449106250000001 -1.6347114583333335Z" stroke-width="1"></path><path fill="#F37368" d="M24.731525000000005 25.733013541666672V19.82075520833334h1.8799156250000002v9.358795833333334h-1.8799156250000002v-3.4465375000000003Z" stroke-width="1"></path><path fill="#F37368" d="M6.245560416666668 26.073410416666672c0.7220354166666668 0.4631520833333334 1.0489572916666667 1.1170468750000002 1.0489572916666667 2.057030208333334 -0.6130104166666668 0.7764968750000002 -1.6619677083333335 1.1987645833333334 -2.901631979166667 1.1987645833333334C2.3086145833333336 29.329205208333338 0.8237410416666668 28.293927083333337 0.5104166666666667 26.50930625h2.0025381250000005c0.2588322916666667 0.8173812500000001 0.9399680208333334 1.1988156250000002 1.8663130208333336 1.1988156250000002 1.1034238541666668 0.013628125000000003 1.852664479166667 -0.5857541666666667 1.866292604166667 -1.6347114583333335Zm-4.9586519791666674 -5.176645833333334c0.5857796875000001 -0.7628687500000001 1.5938577083333336 -1.2260208333333336 2.8199040625000005 -1.2260208333333336 2.138747916666667 0 3.364819791666667 1.130675 3.6781135416666673 2.7109250000000005h-1.9344281250000002c-0.21794791666666669 -0.6266385416666668 -0.7492304166666668 -1.1170979166666668 -1.7164393750000002 -1.1170979166666668 -1.0489521875 0.013628125000000003 -1.757328854166667 0.6130614583333335 -1.798197916666667 1.5666218750000003 -0.7019760416666667 -0.3871510416666667 -1.076193125 -1.144303125 -1.0489521875 -1.9344281250000002Z" stroke-width="1"></path></svg>